<svg width="127" height="48" viewBox="0 0 127 48" fill="none" xmlns="http://www.w3.org/2000/svg">
<path d="M0.283203 37.056C0.283203 34.9227 0.880536 33.088 2.0752 31.552C3.31254 29.9733 4.99787 28.7573 7.1312 27.904C9.26454 27.0507 11.7392 26.624 14.5552 26.624C16.0485 26.624 17.6272 26.752 19.2912 27.008C20.9552 27.2213 22.4272 27.5627 23.7072 28.032V25.6C23.7072 23.04 22.9392 21.0347 21.4032 19.584C19.8672 18.0907 17.6912 17.344 14.8752 17.344C13.0405 17.344 11.2699 17.6853 9.5632 18.368C7.8992 19.008 6.12854 19.9467 4.2512 21.184L2.2032 17.216C4.3792 15.7227 6.5552 14.6133 8.7312 13.888C10.9072 13.12 13.1685 12.736 15.5152 12.736C19.7819 12.736 23.1525 13.9307 25.6272 16.32C28.1019 18.6667 29.3392 21.952 29.3392 26.176V40.32C29.3392 41.6427 29.9365 42.3253 31.1312 42.368V46.72C30.5765 46.8053 30.0859 46.8693 29.6592 46.912C29.2752 46.9547 28.9552 46.976 28.6992 46.976C27.3765 46.976 26.3739 46.6133 25.6912 45.888C25.0512 45.1627 24.6885 44.3947 24.6032 43.584L24.4752 41.472C23.0245 43.3493 21.1259 44.8 18.7792 45.824C16.4325 46.848 14.1072 47.36 11.8032 47.36C9.58454 47.36 7.60054 46.912 5.8512 46.016C4.10187 45.0773 2.73654 43.84 1.7552 42.304C0.77387 40.7253 0.283203 38.976 0.283203 37.056ZM22.0432 39.424C22.5552 38.8267 22.9605 38.2293 23.2592 37.632C23.5579 36.992 23.7072 36.4587 23.7072 36.032V31.872C20.9765 30.8053 18.1605 30.272 15.2592 30.272C12.4005 30.272 10.0752 30.848 8.2832 32C6.53387 33.1093 5.6592 34.6453 5.6592 36.608C5.6592 37.6747 5.93654 38.72 6.4912 39.744C7.08854 40.7253 7.94187 41.536 9.0512 42.176C10.2032 42.816 11.6112 43.136 13.2752 43.136C15.0245 43.136 16.6885 42.7947 18.2672 42.112C19.8459 41.3867 21.1045 40.4907 22.0432 39.424Z" fill="#4E4E4E"/>
<path d="M38.4727 0H44.1047V38.08C44.1047 39.9147 44.3607 41.0453 44.8727 41.472C45.3847 41.8987 46.0034 42.112 46.7287 42.112C47.6247 42.112 48.478 42.0267 49.2887 41.856C50.0994 41.6427 50.782 41.4293 51.3367 41.216L52.2327 45.824C51.294 46.208 50.1847 46.528 48.9047 46.784C47.6247 47.04 46.494 47.168 45.5127 47.168C43.3367 47.168 41.6087 46.5493 40.3287 45.312C39.0914 44.0747 38.4727 42.3467 38.4727 40.128V0Z" fill="#4E4E4E"/>
<path d="M71.2492 47.36C67.9212 47.36 64.9772 46.5707 62.4172 44.992C59.8999 43.3707 57.9372 41.2587 56.5292 38.656C55.1212 36.0107 54.4172 33.152 54.4172 30.08C54.4172 26.9653 55.1212 24.1067 56.5292 21.504C57.9799 18.8587 59.9639 16.7467 62.4812 15.168C65.0412 13.5467 67.9639 12.736 71.2492 12.736C74.5772 12.736 77.4999 13.5467 80.0172 15.168C82.5772 16.7467 84.5612 18.8587 85.9692 21.504C87.4199 24.1067 88.1452 26.9653 88.1452 30.08C88.1452 33.152 87.4199 36.0107 85.9692 38.656C84.5612 41.2587 82.5985 43.3707 80.0812 44.992C77.5639 46.5707 74.6199 47.36 71.2492 47.36ZM60.1772 30.144C60.1772 32.448 60.6679 34.5387 61.6492 36.416C62.6732 38.2933 64.0172 39.7867 65.6812 40.896C67.3452 41.9627 69.2012 42.496 71.2492 42.496C73.2972 42.496 75.1532 41.9413 76.8172 40.832C78.5239 39.7227 79.8679 38.2293 80.8492 36.352C81.8732 34.432 82.3852 32.32 82.3852 30.016C82.3852 27.712 81.8732 25.6213 80.8492 23.744C79.8679 21.8667 78.5239 20.3733 76.8172 19.264C75.1532 18.1547 73.2972 17.6 71.2492 17.6C69.2012 17.6 67.3452 18.176 65.6812 19.328C64.0172 20.4373 62.6732 21.9307 61.6492 23.808C60.6679 25.6853 60.1772 27.7973 60.1772 30.144Z" fill="#4E4E4E"/>
<path d="M109.754 47.36C106.426 47.36 103.482 46.5707 100.922 44.992C98.3617 43.4133 96.3564 41.3013 94.9057 38.656C93.455 36.0107 92.7297 33.1307 92.7297 30.016C92.7297 26.8587 93.455 23.9787 94.9057 21.376C96.3564 18.7733 98.3617 16.6827 100.922 15.104C103.524 13.5253 106.49 12.736 109.818 12.736C113.188 12.736 116.111 13.5467 118.586 15.168C121.103 16.7467 123.044 18.8373 124.41 21.44C125.818 24 126.522 26.7733 126.522 29.76C126.522 30.6987 126.479 31.424 126.394 31.936H98.6817C98.8524 34.112 99.4497 36.0533 100.474 37.76C101.54 39.424 102.906 40.7467 104.57 41.728C106.234 42.6667 108.026 43.136 109.946 43.136C111.994 43.136 113.914 42.624 115.706 41.6C117.54 40.576 118.799 39.232 119.482 37.568L124.346 38.912C123.279 41.3867 121.423 43.4133 118.778 44.992C116.132 46.5707 113.124 47.36 109.754 47.36ZM98.4897 28.032H121.274C121.103 25.856 120.484 23.936 119.418 22.272C118.351 20.608 116.986 19.3067 115.322 18.368C113.658 17.4293 111.823 16.96 109.818 16.96C107.855 16.96 106.042 17.4293 104.378 18.368C102.714 19.3067 101.348 20.608 100.282 22.272C99.2577 23.936 98.6604 25.856 98.4897 28.032Z" fill="#4E4E4E"/>
<path d="M71.0602 28.0383H105.143V31.9315H71.0602V28.0383Z" fill="#4E4E4E"/>
</svg>
